<?xml version="1.0" encoding="UTF-8"?>
<svg width="752pt" height="752pt" version="1.1" viewBox="0 0 752 752" xmlns="http://www.w3.org/2000/svg">
 <g fill-rule="evenodd">
  <path d="m375.98 181.83c4.6367 0.003907 9.3008 1.5547 12.578 4.4414 3.2812 2.8867 5.4766 6.8828 5.4766 13.172v14.652c-5.6523-0.69141-11.484-1.0352-17.613-1.0352l0.003906-0.003906c-0.14844-0.007813-0.29688-0.007813-0.44531 0-6.2344 0.019531-12.168 0.44922-17.906 1.1836v-14.801c0-6.3008 2.1992-10.438 5.4766-13.32 3.2773-2.8828 7.793-4.293 12.43-4.293z"/>
  <path d="m375.54 222.53c0.29688 0.027344 0.59375 0.027344 0.89062 0 34.5 0 59.727 11.773 76.66 30.34 16.934 18.566 25.602 44.258 25.602 72.664 0 61.066 24.289 132.29 81.988 182.33 0.54297 1.2695 0.42578 1.8086-0.44531 3.1094-1.0195 1.5312-3.707 3.832-7.9922 5.918-8.5742 4.1719-23.035 7.9727-41.141 10.953-36.219 5.957-87 8.8281-137.49 8.7305-50.488-0.09375-100.74-3.1719-136.01-9.1758-17.633-3-31.574-6.7656-39.367-10.805-3.8945-2.0195-6.1719-4.125-6.8086-5.3281-0.57422-1.0898-0.67969-1.5898 0.29688-3.1094 57.992-50.055 82.434-121.41 82.434-182.62 0-28.406 8.668-54.098 25.602-72.664 16.785-18.406 41.734-30.137 75.773-30.34z"/>
  <path d="m341.5 545.6c10.605 0.28906 21.352 0.42188 32.113 0.44531 12.418 0.046875 24.766-0.10547 37-0.44531-5.0977 14.25-18.535 24.566-34.484 24.566-15.988 0-29.551-10.324-34.629-24.566z"/>
 </g>
</svg>
