<?xml version="1.0" standalone="no"?>
<!DOCTYPE svg PUBLIC "-//W3C//DTD SVG 20010904//EN"
 "http://www.w3.org/TR/2001/REC-SVG-20010904/DTD/svg10.dtd">
<svg version="1.0" xmlns="http://www.w3.org/2000/svg"
 width="1280.000000pt" height="734.000000pt" viewBox="0 0 1280.000000 734.000000"
 preserveAspectRatio="xMidYMid meet">
<metadata>
Created by potrace 1.15, written by Peter Selinger 2001-2017
</metadata>
<g transform="translate(0.000000,734.000000) scale(0.100000,-0.100000)"
fill="#000000" stroke="none">
<path d="M2460 7228 c-311 -411 -489 -594 -807 -830 -119 -89 -229 -158 -428
-270 -80 -44 -145 -84 -145 -89 0 -4 -7 -88 -15 -186 -32 -368 -63 -551 -144
-836 -62 -218 -75 -294 -75 -437 0 -126 11 -206 54 -380 58 -231 71 -319 71
-451 0 -221 -28 -322 -177 -627 l-103 -213 48 -67 c119 -168 216 -320 237
-371 59 -143 22 -193 -321 -425 -299 -203 -480 -366 -553 -499 -23 -42 -54
-117 -69 -165 -22 -76 -26 -105 -26 -227 -1 -181 27 -292 114 -453 104 -195
294 -366 487 -440 164 -63 485 -114 977 -154 200 -16 772 -16 955 0 818 72
1491 222 2150 479 201 79 231 85 351 72 173 -17 332 -50 1234 -254 776 -175
1374 -301 1660 -349 285 -49 936 -67 1300 -38 469 39 1191 140 1515 214 527
119 965 324 1309 613 92 77 279 264 356 355 122 145 235 348 295 530 63 190
83 317 84 505 0 222 -27 342 -115 518 -202 407 -645 699 -1308 861 -389 96
-641 115 -1661 124 l-705 7 -129 190 c-668 984 -926 1316 -1337 1721 -311 305
-676 587 -1044 806 -538 320 -1028 506 -1810 687 -307 72 -394 74 -464 15 -16
-14 -65 -81 -108 -150 -129 -207 -208 -270 -338 -268 -86 0 -172 27 -315 99
-121 60 -135 69 -405 235 -224 138 -452 260 -487 260 -18 0 -43 -27 -108 -112z
m387 -395 c278 -170 355 -214 503 -289 218 -109 250 -119 400 -118 102 1 136
5 184 22 146 54 247 133 417 328 l88 101 228 -49 c318 -67 439 -99 658 -173
941 -315 1799 -930 2541 -1821 287 -344 536 -706 809 -1174 174 -298 182 -304
346 -276 299 52 1325 44 1934 -15 134 -13 321 -50 477 -95 624 -179 973 -479
1048 -901 19 -108 8 -315 -24 -428 -142 -513 -626 -1017 -1188 -1239 -581
-229 -1812 -413 -2618 -392 -654 16 -1101 97 -2650 480 l-295 73 40 17 c22 10
79 31 126 47 113 38 184 38 370 0 79 -17 223 -46 319 -66 589 -120 1110 -199
1615 -245 520 -46 1147 -43 1615 10 471 53 1035 185 1340 315 108 46 234 111
322 168 297 192 584 503 704 763 106 229 103 457 -9 656 -93 165 -236 287
-452 388 -476 224 -1268 325 -1980 254 -578 -57 -1015 -156 -1446 -328 -455
-180 -900 -410 -2116 -1094 -846 -476 -1032 -577 -1388 -756 -525 -264 -826
-374 -1270 -465 -182 -37 -303 -55 -500 -75 -848 -87 -1931 -36 -2283 107 -84
35 -170 96 -235 167 -178 197 -208 498 -70 707 89 136 409 380 723 553 141 77
167 97 191 148 18 35 23 63 22 121 0 127 -51 273 -184 528 l-89 173 64 127
c35 71 73 158 85 195 32 106 51 273 51 451 0 194 -17 343 -66 578 -54 259 -53
307 24 629 88 369 122 565 122 711 0 30 7 80 16 110 23 79 112 162 279 261
216 127 455 331 835 712 107 108 198 196 202 196 4 0 78 -44 165 -97z m6822
-4817 c358 -54 559 -159 621 -323 62 -167 -18 -293 -263 -413 -194 -94 -495
-185 -762 -230 -267 -44 -715 -70 -1230 -70 -591 0 -824 37 -1352 211 -101 34
-183 63 -183 65 0 6 464 237 693 345 499 237 775 319 1280 383 105 14 251 30
322 36 72 5 150 12 175 14 111 9 600 -3 699 -18z"/>
<path d="M2590 6548 c-186 -199 -429 -404 -720 -607 -310 -217 -316 -224 -330
-433 -11 -170 -37 -301 -107 -541 l-57 -192 0 -155 c-1 -119 6 -204 28 -365
25 -181 29 -243 30 -450 1 -306 -19 -484 -76 -670 -48 -159 -44 -206 38 -403
79 -194 140 -367 168 -481 33 -131 47 -162 96 -210 73 -70 391 -218 625 -290
410 -125 658 -156 1245 -156 438 1 559 8 860 51 190 27 236 36 291 60 61 27
65 44 46 207 -31 259 -39 419 -28 546 14 155 37 239 110 404 34 76 61 143 61
150 0 7 -29 100 -65 207 -207 615 -279 1008 -278 1520 0 202 4 284 26 468 32
267 35 370 10 401 -10 12 -55 34 -99 49 -112 38 -184 84 -273 172 -79 78 -128
156 -151 242 -24 89 -60 110 -241 138 -237 36 -408 100 -821 306 -148 74 -274
134 -280 134 -7 0 -56 -46 -108 -102z m395 -487 c242 -112 378 -165 524 -202
155 -40 191 -65 306 -208 100 -127 182 -207 247 -243 80 -43 80 -45 75 -433
-9 -738 37 -1093 223 -1683 74 -236 75 -257 21 -419 -47 -138 -66 -263 -81
-503 -11 -195 -27 -312 -44 -336 -21 -28 -224 -36 -761 -31 -580 7 -721 16
-894 58 -225 55 -492 158 -594 227 -39 28 -46 38 -59 94 -9 35 -42 133 -73
218 -137 373 -139 381 -107 530 35 161 43 351 41 975 -1 638 3 710 52 953 64
318 121 484 177 519 172 106 304 206 591 449 80 68 151 124 156 124 6 0 96
-40 200 -89z"/>
<path d="M2705 4946 c-266 -53 -344 -166 -348 -499 l-2 -152 253 -3 252 -2 0
117 c1 65 5 138 9 163 15 77 82 104 138 56 l28 -24 0 -179 c0 -258 -7 -268
-190 -280 l-105 -6 0 -143 0 -143 58 -6 c121 -12 139 -16 169 -35 64 -39 68
-58 68 -325 0 -132 -4 -253 -8 -268 -5 -19 -19 -33 -42 -43 -41 -17 -76 -11
-102 18 -16 18 -18 45 -21 264 l-4 244 -251 -2 -252 -3 3 -190 c4 -313 32
-418 137 -513 113 -102 281 -149 505 -139 69 3 151 13 183 21 193 53 301 163
343 351 21 98 29 366 15 494 -21 173 -62 247 -170 301 l-43 22 38 25 c128 85
164 164 164 362 0 167 -49 310 -135 396 -52 52 -98 77 -196 106 -96 27 -386
36 -494 15z"/>
<path d="M4817 6373 c-46 -12 31 -116 317 -428 229 -249 372 -427 514 -641
317 -477 534 -1009 676 -1653 46 -207 66 -326 121 -699 25 -172 52 -345 59
-386 16 -82 40 -146 55 -146 14 0 200 86 601 278 620 296 945 453 952 460 8 8
-207 396 -348 629 -455 755 -1131 1526 -1707 1946 -251 183 -664 419 -988 562
-83 37 -227 89 -233 84 0 -1 -9 -3 -19 -6z"/>
<path d="M4317 6356 c-79 -36 -121 -105 -121 -196 1 -113 53 -187 188 -269 70
-42 209 -90 278 -97 120 -12 118 -10 118 -55 0 -22 -11 -129 -25 -237 -81
-653 -55 -1276 75 -1768 42 -159 82 -268 166 -448 l73 -159 -49 -161 c-100
-331 -130 -491 -131 -706 -1 -200 14 -264 93 -381 104 -155 264 -299 335 -299
52 0 265 128 665 401 l276 189 8 97 c14 168 9 525 -10 683 -65 558 -220 1162
-439 1714 -154 390 -325 693 -546 971 -381 479 -798 794 -954 721z"/>
<path d="M5460 6310 c0 -23 63 -70 333 -252 446 -298 706 -500 1027 -800 560
-522 1009 -1103 1405 -1818 32 -58 76 -131 97 -162 42 -63 56 -68 128 -49 19
6 54 15 77 21 88 23 93 57 24 196 -386 790 -1066 1578 -1891 2191 -289 215
-610 411 -935 573 -200 100 -265 124 -265 100z"/>
<path d="M1225 1773 c-264 -153 -392 -240 -497 -341 -114 -110 -160 -193 -166
-303 -3 -58 0 -85 12 -111 68 -144 297 -282 536 -324 336 -59 1441 -31 2025
51 623 87 1435 348 1760 566 76 51 278 219 271 226 -1 2 -45 -5 -97 -16 -156
-32 -704 -89 -1064 -111 -564 -33 -1172 11 -1626 119 -285 68 -478 137 -758
272 -101 49 -187 89 -190 89 -3 -1 -96 -53 -206 -117z"/>
</g>
</svg>
